<?xml version="1.0" standalone="no"?>
<!DOCTYPE svg PUBLIC "-//W3C//DTD SVG 1.0//EN" "http://www.w3.org/TR/2001/REC-SVG-20010904/DTD/svg10.dtd">
<svg xmlns="http://www.w3.org/2000/svg" xmlns:xlink="http://www.w3.org/1999/xlink" id="body_1" width="3247" height="2295">

<g transform="matrix(1.5201311 0 0 1.5198677 0 0)">
	<g transform="matrix(2.0304182 0 0 2.02957 0 0)">
		<g transform="matrix(1 0 0 1 -0 -308.2677)">
			<g transform="matrix(1.1322734 0 0 1.1322734 -52.34913 -90.176796)">
				<g transform="matrix(1 0 0 1 -4.437939 -36.982826)">
					<g transform="matrix(0.99385244 0.11071269 -0.11071269 0.99385244 40.170765 -80.698586)">
                        <path d="M747.0531 698.4201C 747.0531 698.4201 747.0531 698.4201 747.0531 698.4201L747.0531 698.4201L763.32556 698.4201C 763.32556 698.4201 763.32556 698.4201 763.32556 698.4201L763.32556 698.4201L763.32556 749.10297C 763.32556 749.10297 763.32556 749.10297 763.32556 749.10297L763.32556 749.10297L747.0531 749.10297C 747.0531 749.10297 747.0531 749.10297 747.0531 749.10297L747.0531 749.10297L747.0531 698.4201z" stroke="#FFFFFF" stroke-width="1.968606" fill="#000000" fill-rule="nonzero" />
                        <path transform="matrix(0.15391588 -0.98808396 0.98808396 0.15391588 0 0)"  d="M-571.88416 865.6974C -571.88416 865.6974 -571.88416 865.6974 -571.88416 865.6974L-571.88416 865.6974L-555.6117 865.6974C -555.6117 865.6974 -555.6117 865.6974 -555.6117 865.6974L-555.6117 865.6974L-555.6117 916.38025C -555.6117 916.38025 -555.6117 916.38025 -555.6117 916.38025L-555.6117 916.38025L-571.88416 916.38025C -571.88416 916.38025 -571.88416 916.38025 -571.88416 916.38025L-571.88416 916.38025L-571.88416 865.6974z" stroke="#FFFFFF" stroke-width="1.968606" fill="#000000" fill-rule="nonzero" />
                        <path d="M761.2285 667.57825L742.35504 692.7428L572.49414 586.37854L612.4356 533.1233L761.2285 667.57825z" stroke="none" fill="#000000" fill-rule="nonzero" />
                        <path transform="matrix(0.39000127 0 0 0.3900013 780.397 587.5026)"  d="M-127.20549 244.05511C -126.37106 203.21353 -92.58598 170.78134 -51.7444 171.61577C -10.902821 172.4502 21.52938 206.23528 20.694954 247.07686C 19.860523 287.91843 -13.924557 320.35065 -54.766136 319.5162C -95.01901 318.69382 -127.220924 285.82727 -127.22092 245.56598" stroke="#FFFFFF" stroke-width="5.047691" fill="#000000" fill-rule="nonzero" />
                        <path d="M749.6079 748.6108L752.1125 732.5322L802.1914 748.8392L799.6868 756.4117L749.6079 748.6108z" stroke="none" fill="#000000" fill-rule="nonzero" />
                        <path d="M820.45953 690.84174L804.2125 691.75195L815.5122 743.1925L823.29443 741.44525L820.45953 690.84174z" stroke="none" fill="#000000" fill-rule="nonzero" />
					</g>
                    <path transform="matrix(0.812509 0.5829487 -0.5829487 0.812509 0 0)"  d="M764.238 133.54616L823.45404 133.54616L823.45404 330.93304L764.238 330.93304L764.238 133.54616z" stroke="none" fill="#000000" fill-rule="nonzero" />
					<g transform="matrix(0.7294129 0 0 0.7294129 141.09138 206.9963)">
                        <path d="M242.60735 756.4996C 242.60735 746.69556 250.55508 738.7478 260.3591 738.7478L260.3591 738.7478L372.7869 738.7478C 382.5909 738.7478 390.53864 746.69556 390.53864 756.4996L390.53864 756.4996L390.53864 794.9617C 390.53864 804.76575 382.5909 812.71344 372.7869 812.71344L372.7869 812.71344L260.3591 812.71344C 250.55508 812.71344 242.60735 804.76575 242.60735 794.9617L242.60735 794.9617L242.60735 756.4996z" stroke="#FFFFFF" stroke-width="2.698891" fill="#000000" fill-rule="nonzero" />
                        <path transform="matrix(1 0 0 1 452.6698 479.868)"  d="M-116.85262 270.1697C -116.14336 235.45438 -87.42603 207.887 -52.710693 208.59625C -17.99535 209.30551 9.572025 238.02283 8.862759 272.7382C 8.153493 307.45352 -20.563826 335.0209 -55.27917 334.31165C -89.49411 333.6126 -116.865746 305.67603 -116.86574 271.45395" stroke="#FFFFFF" stroke-width="2.698891" fill="#000000" fill-rule="nonzero" />
					</g>
                    <path transform="matrix(0.5600009 0 0 0.56000096 609.7138 420.75452)"  d="M-127.20549 244.05511C -126.37106 203.21353 -92.58598 170.78134 -51.7444 171.61577C -10.902821 172.4502 21.52938 206.23528 20.694954 247.07686C 19.860523 287.91843 -13.924557 320.35065 -54.766136 319.5162C -95.01901 318.69382 -127.220924 285.82727 -127.22092 245.56598" stroke="#FFFFFF" stroke-width="3.5153618" fill="#000000" fill-rule="nonzero" />
				</g>
                <path d="M269.235 777.20996C 269.235 770.6739 274.53348 765.3754 281.0695 765.3754L281.0695 765.3754L502.96646 765.3754C 509.50247 765.3754 514.80096 770.6739 514.80096 777.20996L514.80096 777.20996L514.80096 796.441C 514.80096 802.977 509.50247 808.2755 502.96646 808.2755L502.96646 808.2755L281.0695 808.2755C 274.53348 808.2755 269.235 802.977 269.235 796.441L269.235 796.441L269.235 777.20996z" stroke="none" fill="#000000" fill-rule="nonzero" />
			</g>
		</g>
	</g>
</g>
</svg>